<?xml version="1.0" encoding="UTF-8" standalone="no"?>
<!-- Generator: Adobe Illustrator 17.0.2, SVG Export Plug-In . SVG Version: 6.00 Build 0)  -->
<!DOCTYPE svg  PUBLIC '-//W3C//DTD SVG 1.1//EN'  'http://www.w3.org/Graphics/SVG/1.1/DTD/svg11.dtd'>
<svg style="enable-background:new 0 0 16 16" xmlns="http://www.w3.org/2000/svg" xml:space="preserve" height="16px" width="16px" version="1.1" y="0px" x="0px" xmlns:xlink="http://www.w3.org/1999/xlink" viewBox="0 0 16 16">
<path d="m5.821 6.535c-0.829 0.47-1.683 1.001-2.562 1.593s-1.744 1.227-2.594 1.904c-0.228 0.182-0.449 0.364-0.665 0.546h2.466c0.487-0.372 0.992-0.736 1.516-1.091 0.61-0.414 1.233-0.802 1.871-1.166 0.637-0.364 1.538-0.81 2.147-1.095 0.609 0.285 1.509 0.732 2.147 1.095 0.638 0.364 1.261 0.752 1.871 1.166 0.524 0.355 1.028 0.719 1.516 1.091h2.466c-0.216-0.182-0.437-0.364-0.665-0.545-0.851-0.677-1.715-1.312-2.594-1.904s-1.733-1.123-2.562-1.594-1.555-0.842-2.179-1.113c-0.624 0.271-1.35 0.642-2.179 1.113" fill="#AEA79F"/>
</svg>
