<?xml version="1.0" encoding="UTF-8" standalone="no"?>
<!-- Generator: Adobe Illustrator 17.0.2, SVG Export Plug-In . SVG Version: 6.00 Build 0)  -->
<!DOCTYPE svg  PUBLIC '-//W3C//DTD SVG 1.1//EN'  'http://www.w3.org/Graphics/SVG/1.1/DTD/svg11.dtd'>
<svg id="Layer_1" xmlns="http://www.w3.org/2000/svg" xml:space="preserve" height="16px" viewBox="0 0 16 16" width="16px" version="1.1" y="0px" x="0px" xmlns:xlink="http://www.w3.org/1999/xlink" enable-background="new 0 0 16 16">
<path d="m5.821 9.465c0.829 0.471 1.555 0.842 2.179 1.113 0.624-0.271 1.35-0.642 2.179-1.113s1.683-1.002 2.562-1.594 1.743-1.227 2.594-1.904c0.228-0.181 0.449-0.363 0.665-0.545h-2.466c-0.488 0.372-0.992 0.736-1.516 1.091-0.61 0.414-1.233 0.802-1.871 1.166-0.638 0.363-1.538 0.81-2.147 1.095-0.609-0.285-1.51-0.731-2.147-1.095-0.638-0.364-1.261-0.752-1.871-1.166-0.524-0.355-1.029-0.719-1.516-1.091h-2.466c0.216 0.182 0.437 0.364 0.665 0.546 0.85 0.677 1.715 1.312 2.594 1.904s1.733 1.123 2.562 1.593" fill="#AEA79F"/>
</svg>
